<svg width="86" height="86" viewBox="0 0 86 86" fill="none" xmlns="http://www.w3.org/2000/svg">
<path d="M33.1823 81.542L30.2526 80.7172L30.3418 80.4004C30.4558 79.9957 30.6335 79.6343 30.875 79.3162C31.1157 79.0009 31.403 78.7448 31.7371 78.5476C32.0682 78.3497 32.4282 78.2232 32.8172 78.1681C33.2062 78.113 33.6074 78.1437 34.0209 78.2601C34.4432 78.3791 34.8084 78.5658 35.1166 78.8203C35.4239 79.0777 35.6678 79.3806 35.8483 79.7289C36.0279 80.0802 36.1369 80.4575 36.1753 80.8608C36.2136 81.264 36.1746 81.6724 36.0582 82.0859C35.9426 82.4965 35.7632 82.8638 35.5201 83.1878C35.2769 83.5118 34.9875 83.7753 34.6518 83.9783C34.3161 84.1813 33.9504 84.311 33.5547 84.3673C33.1582 84.4266 32.7488 84.3968 32.3265 84.2779C32.0391 84.197 31.7858 84.0908 31.5664 83.9594C31.3432 83.8301 31.1525 83.6814 30.9941 83.5134C30.8319 83.3475 30.6962 83.1716 30.5871 82.9858C30.4772 82.8029 30.3903 82.617 30.3264 82.4281L31.111 82.255C31.2184 82.5479 31.3877 82.8124 31.6188 83.0483C31.8498 83.2843 32.1531 83.4552 32.5284 83.5609C32.8334 83.6467 33.1319 83.6659 33.4238 83.6183C33.7157 83.5707 33.9867 83.4682 34.2368 83.3107C34.4839 83.1524 34.6976 82.9499 34.8779 82.7031C35.0582 82.4564 35.192 82.1776 35.2796 81.8667C35.3671 81.5558 35.3988 81.2467 35.3746 80.9392C35.3495 80.6346 35.2733 80.3488 35.1459 80.0819C35.0147 79.8171 34.8371 79.5882 34.6128 79.3953C34.3886 79.2024 34.124 79.063 33.819 78.9772C33.5287 78.8954 33.2493 78.8706 32.9807 78.9026C32.7122 78.9346 32.4637 79.0133 32.2352 79.1389C32.0068 79.2645 31.8082 79.4302 31.6395 79.6359C31.4708 79.8416 31.3426 80.0777 31.2549 80.3442L33.3532 80.935L33.1823 81.542Z" fill="black"/>
<path d="M22.4727 80.2259L21.7921 79.8328L24.8092 74.6091L25.4898 75.0022L22.4727 80.2259Z" fill="black"/>
<path d="M15.7507 74.6886L16.9579 75.7792L16.483 76.3048L13.4854 73.5965L13.9603 73.0709L15.1675 74.1616L18.7366 70.2111L19.3199 70.7381L15.7507 74.6886Z" fill="black"/>
<path d="M7.791 66.7789L7.3537 66.093L11.2413 60.9696L11.6909 61.6748L10.7456 62.8954L12.1214 65.0533L13.6318 64.719L14.0813 65.4242L7.791 66.7789ZM11.3928 65.2197L10.2848 63.4818L8.37666 65.9124L8.38403 65.9239L11.3928 65.2197Z" fill="black"/>
<path d="M3.09864 57.6771L2.86839 56.9303L7.95607 55.3617L7.25724 53.0951L7.93414 52.8864L8.86322 55.8997L3.09864 57.6771Z" fill="black"/>
<path d="M5.94607 44.126C5.9382 43.7513 5.87961 43.428 5.77029 43.156C5.66091 42.881 5.55626 42.6867 5.45636 42.573L6.12081 42.2162C6.24552 42.3507 6.37391 42.5872 6.50595 42.9258C6.63794 43.2612 6.70892 43.6666 6.7189 44.1417C6.72824 44.5864 6.65771 45.0008 6.50731 45.3849C6.35692 45.769 6.14309 46.1072 5.86582 46.3994C5.5885 46.6887 5.26268 46.9179 4.88837 47.0873C4.51399 47.2536 4.10749 47.3414 3.66887 47.3506C3.23025 47.3598 2.8189 47.2892 2.43483 47.1388C2.05076 46.9884 1.71411 46.7746 1.42489 46.4973C1.13255 46.2169 0.903192 45.8881 0.736806 45.5107C0.56731 45.1303 0.477893 44.7177 0.468555 44.273C0.458577 43.7978 0.51248 43.3899 0.630266 43.0491C0.747987 42.7054 0.866329 42.4637 0.98529 42.324L1.66412 42.6526C1.56604 42.7705 1.46964 42.969 1.37495 43.2483C1.27714 43.5246 1.23217 43.8501 1.24004 44.2248C1.2472 44.5659 1.31163 44.8769 1.43333 45.1578C1.55502 45.4386 1.72469 45.6819 1.94232 45.8876C2.15684 46.0903 2.40848 46.2465 2.69723 46.3563C2.98592 46.463 3.29931 46.5127 3.63742 46.5056C3.97857 46.4985 4.29264 46.4355 4.57964 46.3167C4.86353 46.195 5.10991 46.0283 5.31878 45.8167C5.52454 45.6021 5.68232 45.352 5.79212 45.0663C5.90192 44.7805 5.95323 44.4671 5.94607 44.126Z" fill="black"/>
<path d="M1.88506 32.483L2.10694 31.7004L8.51887 31.2002L8.29076 32.0048L6.75051 32.1096L6.05245 34.5718L7.306 35.4782L7.07789 36.2828L1.88506 32.483ZM5.44392 34.138L6.00611 32.1551L2.9218 32.3447L2.91806 32.3579L5.44392 34.138Z" fill="black"/>
<path d="M8.62751 18.0786L13.663 21.4002L13.2353 22.0487L9.59976 19.6506L9.06545 19.2489L9.58904 19.7913L12.081 23.1761L11.6557 23.8208L7.56339 22.8622L6.86113 22.5906L7.43822 22.9275L11.0737 25.3256L10.6434 25.9779L5.6079 22.6563L6.18163 21.7866L11.0396 23.0202L11.3254 23.143L11.1025 22.9248L8.05882 18.9407L8.62751 18.0786Z" fill="black"/>
<path d="M14.0276 11.9229L16.7758 9.65272L17.2269 10.1988L15.0742 11.9771L16.3198 13.4851L18.4303 11.7418L18.8698 12.2738L16.7593 14.0171L18.0137 15.5357L20.1665 13.7574L20.6176 14.3035L17.8694 16.5737L14.0276 11.9229Z" fill="black"/>
<path d="M23.3211 5.34353L25.2431 4.48077C25.5405 4.34727 25.8381 4.28878 26.1361 4.30531C26.4356 4.31781 26.7112 4.41114 26.9631 4.5853C27.2164 4.75542 27.4199 5.01142 27.5733 5.3533C27.7255 5.69239 27.7834 6.00369 27.7471 6.28718C27.7135 6.56942 27.6277 6.80994 27.4899 7.00874C27.3508 7.20476 27.2031 7.34451 27.0469 7.428L29.477 9.19245L28.6682 9.55552L26.3481 7.8018L25.4601 8.20042L26.5044 10.5268L25.7914 10.8469L23.3211 5.34353ZM25.2224 7.67094L26.1813 7.24049C26.5093 7.09327 26.7435 6.88963 26.8839 6.62957C27.0243 6.36951 27.0134 6.05882 26.8512 5.69749C26.689 5.33616 26.4653 5.12431 26.1802 5.06195C25.8978 4.99835 25.5927 5.04016 25.2647 5.18738L24.3016 5.6197L25.2224 7.67094Z" fill="black"/>
<path d="M35.9038 1.16634L36.7089 1.04973L39.7808 6.70009L38.9531 6.81998L38.2292 5.45642L35.6964 5.82328L35.3801 7.33751L34.5524 7.4574L35.9038 1.16634ZM35.8443 5.09074L37.884 4.79529L36.453 2.0565L36.4394 2.05847L35.8443 5.09074Z" fill="black"/>
<path d="M46.2537 0.598622L47.6603 0.80233C48.2965 0.894468 48.8011 1.09838 49.174 1.41406C49.5504 1.72716 49.8056 2.12275 49.9395 2.60083C50.0735 3.07892 50.0985 3.60742 50.0147 4.18633C49.9304 4.76826 49.7562 5.26945 49.4921 5.6899C49.2281 6.11034 48.8725 6.41901 48.4253 6.61591C47.9781 6.81282 47.4349 6.86498 46.7957 6.77241L45.3891 6.5687L46.2537 0.598622ZM46.9204 1.41553L46.2601 5.9745L46.8345 6.05768C47.3049 6.1258 47.7035 6.08349 48.0304 5.93073C48.3573 5.77797 48.6163 5.5415 48.8073 5.22131C49.0018 4.89853 49.1325 4.51726 49.1993 4.07748C49.2634 3.63424 49.2494 3.23201 49.157 2.87077C49.065 2.50651 48.8825 2.20456 48.6094 1.9649C48.3367 1.72223 47.9651 1.56684 47.4948 1.49871L46.9204 1.41553Z" fill="black"/>
<path d="M57.8261 3.22573L58.5578 3.51288L56.3541 9.12833L55.6224 8.84118L57.8261 3.22573Z" fill="black"/>
<path d="M65.4573 10.2495L67.9286 12.026L67.7365 12.2932C67.4911 12.6346 67.2005 12.9135 66.8649 13.1299C66.5309 13.3439 66.1733 13.4864 65.792 13.5575C65.4132 13.6304 65.0316 13.6262 64.6472 13.545C64.2628 13.4638 63.8962 13.2978 63.5474 13.0471C63.1912 12.791 62.9118 12.4907 62.7092 12.1462C62.5084 11.7992 62.3827 11.4312 62.3322 11.0422C62.2834 10.6507 62.3099 10.2589 62.4117 9.86678C62.5135 9.47467 62.6897 9.10421 62.9405 8.75541C63.1894 8.40908 63.4835 8.12522 63.8228 7.90383C64.162 7.68244 64.5241 7.53372 64.909 7.45768C65.2938 7.38163 65.6818 7.38476 66.0729 7.46704C66.4658 7.54686 66.8403 7.7148 67.1966 7.97088C67.439 8.14516 67.6408 8.33153 67.8021 8.53C67.9676 8.72777 68.0961 8.93269 68.1875 9.14476C68.2832 9.35613 68.3506 9.56778 68.3896 9.77969C68.4304 9.98912 68.4485 10.1935 68.444 10.3929L67.6475 10.2874C67.6467 9.97542 67.578 9.66903 67.4415 9.36828C67.305 9.06754 67.0784 8.80335 66.7618 8.57572C66.5045 8.39078 66.2305 8.27077 65.9399 8.2157C65.6493 8.16064 65.3596 8.16436 65.0708 8.22689C64.7844 8.29119 64.5144 8.40848 64.2606 8.57878C64.0069 8.74907 63.7858 8.96533 63.5973 9.22755C63.4088 9.48977 63.2733 9.76951 63.191 10.0668C63.1104 10.3615 63.0843 10.6561 63.1128 10.9505C63.1456 11.2442 63.2344 11.52 63.3792 11.778C63.5239 12.0359 63.725 12.2573 63.9822 12.4423C64.2271 12.6183 64.4813 12.7372 64.7446 12.7989C65.0079 12.8606 65.2683 12.8715 65.5259 12.8316C65.7835 12.7916 66.0268 12.7038 66.2556 12.5681C66.4845 12.4325 66.6856 12.2544 66.8591 12.0339L65.0891 10.7615L65.4573 10.2495Z" fill="black"/>
<path d="M75.0715 15.1469L75.5768 15.749L70.956 19.6269L70.4507 19.0248L75.0715 15.1469Z" fill="black"/>
<path d="M79.4967 22.6484L78.735 21.2109L79.3609 20.8792L81.2523 24.4489L80.6264 24.7806L79.8647 23.343L75.1602 25.8357L74.7922 25.1411L79.4967 22.6484Z" fill="black"/>
<path d="M84.2736 32.8027L84.4501 33.5968L79.0454 37.0829L78.864 36.2665L80.1695 35.4426L79.6141 32.9444L78.0805 32.7423L77.899 31.9259L84.2736 32.8027ZM80.3557 33.037L80.803 35.049L83.427 33.4169L83.424 33.4036L80.3557 33.037Z" fill="black"/>
<path d="M85.5729 42.9594L85.5341 43.7399L80.2167 43.4752L80.0987 45.8441L79.3913 45.8089L79.548 42.6595L85.5729 42.9594Z" fill="black"/>
<path d="M78.2638 54.7212C78.1431 55.076 78.0877 55.3998 78.0975 55.6928C78.1063 55.9886 78.1382 56.207 78.1932 56.348L77.4468 56.4562C77.3756 56.2872 77.3358 56.021 77.3274 55.6577C77.318 55.2974 77.3899 54.8922 77.5429 54.4422C77.6861 54.0211 77.894 53.6558 78.1666 53.3462C78.4393 53.0367 78.7558 52.792 79.1162 52.6121C79.4757 52.435 79.8603 52.3309 80.27 52.2997C80.6786 52.2713 81.0906 52.3278 81.506 52.469C81.9213 52.6103 82.2838 52.8172 82.5933 53.0898C82.9029 53.3625 83.1462 53.6785 83.3232 54.038C83.5021 54.4013 83.6052 54.7888 83.6326 55.2003C83.6619 55.6158 83.6049 56.034 83.4617 56.4552C83.3087 56.9051 83.1186 57.2701 82.8914 57.55C82.6633 57.8329 82.4695 58.0196 82.3099 58.1101L81.7843 57.5693C81.9168 57.4921 82.0752 57.3384 82.2597 57.1083C82.446 56.8821 82.5995 56.5915 82.7202 56.2368C82.8301 55.9137 82.8758 55.5994 82.8574 55.2939C82.839 54.9884 82.7627 54.7018 82.6285 54.4341C82.4962 54.1702 82.3131 53.9374 82.0793 53.7356C81.8444 53.5367 81.5669 53.3828 81.2468 53.2739C80.9237 53.164 80.607 53.1158 80.2967 53.1294C79.9883 53.1468 79.6998 53.2192 79.4312 53.3467C79.1645 53.478 78.9307 53.6592 78.7298 53.8901C78.529 54.1211 78.3737 54.3981 78.2638 54.7212Z" fill="black"/>
<path d="M78.1016 67.0503L77.6256 67.71L71.4289 65.9885L71.9182 65.3103L73.4016 65.7383L74.8991 63.663L74.0308 62.3827L74.5202 61.7045L78.1016 67.0503ZM75.3227 64.2786L74.1167 65.95L77.08 66.826L77.088 66.8149L75.3227 64.2786Z" fill="black"/>
<path d="M66.8425 78.2836L63.2455 73.441L63.8691 72.9778L66.4661 76.474L66.8309 77.0341L66.5242 76.3454L65.3392 72.3128L65.9592 71.8523L69.4775 74.1518L70.0446 74.647L69.6174 74.1332L67.0205 70.637L67.6479 70.171L71.2449 75.0136L70.4084 75.6349L66.2646 72.8152L66.038 72.6021L66.1729 72.8833L67.6716 77.6678L66.8425 78.2836Z" fill="black"/>
<path d="M59.663 82.2224L56.3043 83.4165L56.067 82.7491L58.698 81.8137L58.0427 79.9708L55.4635 80.8878L55.2323 80.2376L57.8115 79.3206L57.1517 77.4647L54.5208 78.4001L54.2835 77.7327L57.6421 76.5386L59.663 82.2224Z" fill="black"/>
<path d="M48.681 85.2293L46.5799 85.3832C46.2548 85.407 45.9551 85.3602 45.6807 85.2428C45.4035 85.1287 45.1764 84.9468 44.9992 84.697C44.8193 84.4506 44.7156 84.1405 44.6882 83.7667C44.6611 83.396 44.713 83.0837 44.8441 82.8297C44.9722 82.5759 45.1349 82.3792 45.3324 82.2395C45.5301 82.1028 45.7167 82.0219 45.892 81.9969L44.2114 79.5081L45.0956 79.4434L46.6765 81.8844L47.6473 81.8133L47.461 79.2701L48.2404 79.213L48.681 85.2293ZM47.6897 82.3922L46.6414 82.469C46.2829 82.4952 45.9932 82.6065 45.7723 82.803C45.5515 82.9994 45.4556 83.2951 45.4845 83.6901C45.5134 84.0851 45.6512 84.3606 45.8979 84.5167C46.1415 84.673 46.4425 84.738 46.8011 84.7117L47.8539 84.6346L47.6897 82.3922Z" fill="black"/>
<path d="M47.1003 42.4638L40.3373 38.4657C39.7878 38.141 38.9462 38.4561 38.9463 39.2592L38.9463 47.2537C38.9463 47.9741 39.7283 48.4083 40.3374 48.0471L47.1003 44.0508C47.7036 43.6953 47.7055 42.8192 47.1003 42.4638Z" fill="black"/>
</svg>
