<svg width="47" height="15" viewBox="0 0 47 15" fill="none" xmlns="http://www.w3.org/2000/svg">
<path d="M0.836293 0.157438L2.9202 0.157415L8.71136 8.42717C8.97459 8.80739 9.2232 9.18761 9.45719 9.56783C9.69118 9.94805 9.8886 10.2917 10.0495 10.5988L10.0933 10.5988C10.0202 9.51664 9.98364 8.44178 9.98363 7.37424C9.98361 6.29207 9.9836 5.20259 9.98359 4.10579L9.98355 0.157338L12.2429 0.157314L12.2431 13.9769L10.1592 13.9769L4.52158 5.9704C4.24372 5.57556 3.97318 5.15147 3.70994 4.69813C3.4467 4.23017 3.22003 3.81339 3.02991 3.44779L2.98604 3.44779C3.05918 4.58846 3.09575 5.72181 3.09576 6.84785C3.09577 7.95927 3.09578 9.078 3.0958 10.204L3.09584 13.977L0.836444 13.977L0.836293 0.157438ZM20.5466 4.32504L22.0821 4.32502L22.0822 10.2989C22.0822 11.0935 21.9238 11.7808 21.6069 12.3609C21.295 12.9361 20.8587 13.3797 20.2981 13.6917C19.7375 13.9988 19.0843 14.1523 18.3385 14.1523C17.5976 14.1523 16.9444 13.9988 16.3789 13.6917C15.8135 13.3797 15.3723 12.9361 15.0554 12.3609C14.7386 11.7809 14.5801 11.0935 14.5801 10.299L14.5801 4.3251L16.1156 4.32509L16.1156 10.2185C16.1156 10.745 16.2107 11.1959 16.4008 11.5712C16.5958 11.9466 16.859 12.2342 17.1905 12.434C17.5269 12.6339 17.9095 12.7338 18.3385 12.7338C18.7675 12.7338 19.1477 12.6339 19.4792 12.434C19.8106 12.2341 20.0714 11.9465 20.2615 11.5712C20.4516 11.1958 20.5467 10.7449 20.5467 10.2185L20.5466 4.32504ZM26.7027 9.06312L30.5561 13.9767L28.7135 13.9767L25.3134 9.58959L25.3134 13.9768L23.7706 13.9768L23.7705 4.325L25.3133 4.32499L25.3134 8.60248L28.4794 4.32495L30.2343 4.32493L26.7027 9.06312ZM31.5478 4.32492L37.3974 4.32485L37.3974 5.6995L33.076 5.69955L33.076 8.47078L37.3243 8.47073L37.3243 9.80882L33.0761 9.80887L33.0761 12.602L37.3975 12.602L37.3975 13.9766L31.5479 13.9767L31.5478 4.32492ZM41.7162 10.5034L38.4403 4.32484L40.3049 4.32482L42.4839 8.72659L44.6555 4.32478L46.5127 4.32476L43.2517 10.5034L43.2517 13.9766L41.7162 13.9766L41.7162 10.5034Z" fill="#1F2A37"/>
</svg>
