<svg width="18" height="18" viewBox="0 0 18 18" fill="none" xmlns="http://www.w3.org/2000/svg">
<rect x="0.0118828" y="0.938416" width="17.0612" height="17.0612" rx="8.53061" fill="#1F2A37"/>
<path d="M6.71452 6.67582L10.3705 6.67578C12.0969 6.67576 12.2696 7.48312 12.3864 8.4682L12.8434 12.2765C12.9907 13.5256 12.6048 14.5463 10.8276 14.5463L6.26269 14.5463C4.4804 14.5463 4.09448 13.5257 4.2468 12.2766L4.70376 8.46828C4.81546 7.4832 4.98809 6.67583 6.71452 6.67582Z" stroke="white" stroke-width="0.60933" stroke-linecap="round" stroke-linejoin="round"/>
<path d="M6.51102 7.43746L6.511 5.66024C6.51099 4.89858 7.01876 4.3908 7.78042 4.39079L9.30375 4.39078C10.0654 4.39077 10.5732 4.89854 10.5732 5.6602L10.5732 7.43741" stroke="white" stroke-width="0.60933" stroke-linecap="round" stroke-linejoin="round"/>
<path d="M12.8125 12.0228L6.51105 12.0229" stroke="white" stroke-width="0.60933" stroke-linecap="round" stroke-linejoin="round"/>
</svg>
